<svg width="205" height="76" viewBox="0 0 205 76" fill="none" xmlns="http://www.w3.org/2000/svg">
<path d="M107.824 25.7349C108.024 25.3701 108.205 25.0094 108.402 24.6546C110.14 21.4914 112.189 18.6113 115.508 16.8035L115.562 16.7756C115.59 16.7577 115.624 16.7417 115.662 16.7198L115.957 16.5643C115.885 16.5444 115.773 16.5165 115.672 16.4946L115.528 16.4587L115.49 16.4487C115.474 16.4438 115.457 16.4398 115.44 16.4367C111.528 15.488 107.24 16.5683 104.39 19.562C102.166 21.898 100.177 24.4712 98.1775 27.0145C91.4924 35.5253 79.4576 35.1407 73.6475 26.1913C69.4798 19.7713 72.3539 11.2944 79.5294 9.09988C83.8007 7.79236 87.7951 8.65341 91.4346 11.1768C92.3315 11.7966 93.1567 12.5142 94.0138 13.1998C95.3512 10.9256 96.7504 8.61554 98.3987 6.48484C98.2951 6.41309 98.2173 6.36525 98.1476 6.30745C92.6385 1.90653 86.3879 0.00504071 79.3938 1.01159C66.795 2.82538 58.5074 15.5617 65.1068 28.1187C69.1948 35.8841 75.9337 40.006 84.5322 40.9707C90.8307 41.6803 96.561 40.1734 101.309 35.7386C102.168 34.9271 102.948 34.0362 103.639 33.0777C103.986 32.5994 104.318 32.1097 104.635 31.6088C104.715 31.4852 104.791 31.3596 104.869 31.2321C104.946 31.1045 105.042 30.945 105.126 30.8015C105.191 30.6899 105.257 30.5783 105.325 30.4647C105.548 30.08 105.763 29.6893 105.977 29.2987C106.19 28.908 106.403 28.5014 106.611 28.1028C106.818 27.7041 107.009 27.3374 107.209 26.9587L107.824 25.7349Z" fill="#0A85C2"/>
<path d="M140.583 16.1936C136.617 6.74792 127.494 0.706621 117.136 0.73054C111.411 0.740505 106.265 2.37092 102.442 6.65424C102.235 6.88279 102.035 7.11998 101.844 7.3658C99.7731 9.935 98.1068 12.855 96.4305 15.7172C96.3627 15.8368 96.291 15.9564 96.2312 16.076C94.5011 19.0657 92.8587 22.0774 90.1879 24.3715C90.1281 24.4214 89.7454 24.7542 89.3906 25.0153L89.7374 25.0492C92.8926 25.2147 95.6372 24.4712 98.1088 22.7949C101.298 20.6343 103.538 17.521 106.03 14.6688C107.812 12.6318 109.671 10.7084 112.187 9.57424C119.589 6.23966 129.152 9.95892 132.272 17.4692C133.97 21.5492 133.95 25.6252 131.098 29.2169C128.335 32.693 124.532 33.574 120.275 32.8465C117.098 32.3044 114.495 30.6221 112.057 28.6469C111.626 28.2981 111.188 27.9592 110.704 27.5786L110.516 27.9393C109.414 30.0919 108.286 32.2944 106.813 34.3175C106.835 34.3576 106.86 34.3962 106.887 34.4331C107.054 34.6469 107.239 34.8469 107.439 35.031C107.59 35.1805 107.744 35.33 107.909 35.4675C108.075 35.6051 108.236 35.7286 108.401 35.8482C108.73 36.0887 109.062 36.3239 109.398 36.5538C109.734 36.7837 110.075 37.0056 110.421 37.2195C110.765 37.4328 111.112 37.6421 111.465 37.8414C111.818 38.0407 112.173 38.24 112.531 38.4174C112.89 38.5948 113.253 38.7762 113.62 38.9436C113.986 39.111 114.361 39.2665 114.734 39.412C115.107 39.5575 115.489 39.701 115.872 39.8286C116.255 39.9561 116.645 40.0777 117.038 40.1854C117.431 40.293 117.835 40.3847 118.222 40.4764C123.205 41.5567 128.118 41.2976 132.676 38.8639C141.028 34.3972 144.269 24.9695 140.583 16.1936Z" fill="black"/>
<path d="M21.1598 68.7643C21.2455 68.5989 21.3312 68.4374 21.4209 68.276C22.2042 66.8489 23.129 65.5473 24.6279 64.7321L24.6518 64.7202L24.6977 64.6942L24.8292 64.6245L24.7016 64.5926L24.6359 64.5767H24.6179H24.596C23.7145 64.3568 22.7908 64.3714 21.9167 64.619C21.0426 64.8665 20.2484 65.3384 19.6131 65.9878C18.6165 67.0422 17.7116 68.2042 16.8087 69.3523C13.791 73.1951 8.35764 73.0217 5.73462 68.9816C3.85108 66.0815 5.15062 62.2546 8.38953 61.264C10.3169 60.666 12.1207 61.0647 13.7711 62.2028C14.1697 62.4818 14.5484 62.8007 14.9351 63.1157C15.5297 62.0632 16.1922 61.0505 16.9183 60.084C16.8789 60.0597 16.841 60.0331 16.8047 60.0043C14.3172 58.0112 11.4949 57.1581 8.3377 57.6125C2.64919 58.4317 -1.09398 64.19 1.88581 69.8566C3.72551 73.3586 6.76509 75.2182 10.6558 75.6547C13.5 75.9756 16.0872 75.2939 18.2298 73.2928C18.6172 72.9273 18.9701 72.527 19.2842 72.0969C19.4397 71.8816 19.5892 71.6604 19.7307 71.4352L19.8363 71.2637L19.9519 71.0644C19.9818 71.0126 20.0117 70.9628 20.0396 70.911C20.1413 70.7375 20.2389 70.5602 20.3346 70.3848C20.4303 70.2094 20.5339 70.022 20.6216 69.8406C20.7093 69.6592 20.799 69.4958 20.8867 69.3244L21.1598 68.7643Z" fill="#0A85C2"/>
<path d="M35.9471 64.457C35.0756 62.3739 33.6032 60.5976 31.7177 59.3551C29.8323 58.1126 27.6193 57.4601 25.3613 57.4809C22.7702 57.4809 20.4522 58.2223 18.7241 60.1557C18.6324 60.2594 18.5407 60.367 18.451 60.4766C17.5162 61.6367 16.7648 62.9541 16.0074 64.2477C15.9755 64.3015 15.9436 64.3553 15.9137 64.4092C15.1324 65.7565 14.3889 67.1179 13.1851 68.1543C13.1572 68.1762 12.9857 68.3277 12.8203 68.4453L12.9758 68.4593C14.3167 68.5579 15.6515 68.1996 16.7628 67.4428C18.2059 66.4661 19.2144 65.0609 20.3386 63.7733C21.1358 62.8545 21.9829 61.9795 23.129 61.4732C26.4715 59.9684 30.7887 61.6466 32.1979 65.039C32.9633 66.8807 32.9553 68.7204 31.6677 70.3408C30.42 71.9115 28.7039 72.3081 26.7805 71.9812C25.3474 71.7361 24.1734 70.9846 23.0712 70.0837C22.8719 69.9262 22.6726 69.7748 22.4593 69.6014L22.3756 69.7648C21.8942 70.7664 21.335 71.7287 20.7033 72.6429C20.7134 72.661 20.7248 72.6783 20.7372 72.6948C20.8116 72.7921 20.8943 72.8828 20.9843 72.9658C21.0541 73.0336 21.1239 73.1014 21.1976 73.1652C21.2714 73.2289 21.3451 73.2828 21.4208 73.3366C21.5683 73.4462 21.7198 73.5518 21.8733 73.6555C22.0268 73.7591 22.1783 73.8548 22.3337 73.9565C22.4892 74.0581 22.6466 74.1558 22.8061 74.2375C22.9656 74.3192 23.125 74.4149 23.2865 74.4986C23.4479 74.5823 23.6133 74.66 23.7788 74.7338C23.9442 74.8075 24.1136 74.8813 24.281 74.9471C24.4485 75.0128 24.6239 75.0766 24.7953 75.1344C24.9667 75.1922 25.1441 75.246 25.3215 75.2959C25.4989 75.3457 25.6783 75.3875 25.8576 75.4274C28.102 75.9157 30.3243 75.7981 32.3833 74.6999C36.1484 72.6748 37.6114 68.4194 35.9471 64.457Z" fill="black"/>
<path d="M64.2461 74.8554C64.0607 74.9012 63.7916 74.959 63.4349 75.0288C63.0543 75.0994 62.6679 75.1341 62.2808 75.1324C61.4516 75.1324 60.8497 74.9829 60.469 74.684C60.0883 74.385 59.901 73.8568 59.901 73.0894V64.1222C59.901 63.204 59.6478 62.5396 59.1416 62.129C58.6353 61.7184 57.9709 61.5111 57.1484 61.5071C56.5985 61.5067 56.0538 61.6123 55.5439 61.8181C55.046 62.0136 54.5855 62.2934 54.1825 62.6452C54.2505 62.963 54.2852 63.287 54.2862 63.6119V74.8534C54.1008 74.8992 53.8318 74.957 53.475 75.0268C53.0937 75.0975 52.7067 75.1322 52.3189 75.1304C51.4911 75.1304 50.8878 74.981 50.5091 74.682C50.1304 74.383 49.9411 73.8515 49.9411 73.0874V64.1222C49.9411 63.204 49.6753 62.5396 49.1438 62.129C48.5561 61.696 47.8382 61.4766 47.1088 61.5071C46.5648 61.5007 46.0242 61.5947 45.5142 61.7842C45.098 61.9368 44.6942 62.1213 44.3064 62.3363V74.8534C44.1071 74.8992 43.824 74.957 43.4792 75.0268C43.0928 75.099 42.7003 75.1337 42.3072 75.1304C41.502 75.1304 40.904 74.981 40.5134 74.682C40.1227 74.383 39.9274 73.8515 39.9274 73.0874V62.0273C39.9103 61.5607 40.0301 61.0992 40.2722 60.6999C40.5554 60.2913 40.9189 59.9448 41.3405 59.6814C42.1515 59.1676 43.035 58.7786 43.9616 58.5273C45.0258 58.2155 46.1294 58.0584 47.2383 58.0609C49.3298 58.0609 51.0313 58.6243 52.3429 59.7511C53.0493 59.2476 53.8203 58.8413 54.635 58.5433C55.6155 58.2027 56.6488 58.0394 57.6865 58.0609C58.5485 58.0564 59.4072 58.167 60.2398 58.3898C61.0025 58.5868 61.7141 58.945 62.3266 59.4402C62.9262 59.9412 63.4034 60.5724 63.7219 61.2859C64.0862 62.1288 64.2631 63.0407 64.2401 63.9587L64.2461 74.8554Z" fill="black"/>
<path d="M73.0035 74.8554C72.8042 74.9013 72.5192 74.9591 72.1744 75.0288C71.788 75.1011 71.3955 75.1358 71.0024 75.1325C70.1972 75.1325 69.5992 74.983 69.2085 74.684C68.8179 74.3851 68.6226 73.8535 68.6226 73.0895V62.1649C68.6048 61.6291 68.7493 61.1004 69.0371 60.6481C69.3534 60.1962 69.7651 59.8193 70.243 59.5439C71.0663 59.0619 71.9552 58.702 72.882 58.4756C73.9888 58.1917 75.1277 58.0523 76.2704 58.061C78.4549 58.061 79.5471 58.7393 79.5471 60.096C79.5489 60.4077 79.4963 60.7173 79.3917 61.0109C79.307 61.2566 79.1975 61.493 79.0648 61.7165C78.4167 61.5916 77.7574 61.5342 77.0975 61.545C76.3309 61.5405 75.5668 61.6329 74.8233 61.8201C74.1881 61.9742 73.5742 62.2058 72.9956 62.5097L73.0035 74.8554Z" fill="black"/>
<path d="M87.3657 71.4073C87.8142 71.7302 88.4401 71.8896 89.2453 71.8896C89.6478 71.889 90.049 71.8428 90.4412 71.7521C90.8128 71.6695 91.1763 71.5541 91.5275 71.4073C91.719 71.6035 91.876 71.8306 91.9919 72.079C92.1268 72.3649 92.195 72.6777 92.1912 72.9939C92.1916 73.3335 92.1065 73.6678 91.9439 73.9659C91.7812 74.2641 91.5462 74.5165 91.2604 74.7C90.6399 75.1492 89.6399 75.3737 88.2607 75.3737C86.4429 75.3737 85.0118 74.9658 83.9674 74.1499C82.923 73.334 82.3948 71.9847 82.3828 70.1018V54.268C82.5662 54.2222 82.8353 54.1644 83.192 54.0946C83.5733 54.0239 83.9603 53.9892 84.3481 53.991C85.1453 53.991 85.7433 54.1425 86.124 54.4394C86.5047 54.7364 86.692 55.2686 86.692 56.034V58.8962H91.7627C91.8953 59.1243 91.999 59.368 92.0716 59.6217C92.166 59.9345 92.2131 60.2597 92.2111 60.5864C92.2111 61.1843 92.0716 61.6208 91.7966 61.8979C91.6501 62.038 91.4767 62.1468 91.2869 62.2178C91.0971 62.2887 90.8948 62.3202 90.6923 62.3105H86.694V69.8287C86.694 70.5562 86.9173 71.0864 87.3657 71.4073Z" fill="black"/>
<path d="M105.576 62.1988C105.014 61.7404 104.25 61.5105 103.284 61.5092C102.66 61.5035 102.039 61.5854 101.438 61.7523C100.924 61.8909 100.431 62.0995 99.9731 62.3722V74.8554C99.7738 74.9013 99.4888 74.9591 99.144 75.0288C98.7575 75.1011 98.3651 75.1358 97.972 75.1325C97.1667 75.1325 96.5688 74.983 96.1781 74.684C95.7875 74.3851 95.5921 73.8535 95.5921 73.0895V62.0274C95.5715 61.5547 95.6915 61.0865 95.9369 60.682C96.2252 60.2831 96.5889 59.9445 97.0073 59.6854C97.8237 59.1591 98.7204 58.7694 99.6622 58.5314C100.854 58.209 102.084 58.0521 103.318 58.065C105.686 58.065 107.519 58.5878 108.819 59.6336C110.118 60.6793 110.767 62.2141 110.766 64.2378V74.8594C110.583 74.9053 110.312 74.9631 109.957 75.0328C109.576 75.1036 109.189 75.1383 108.801 75.1365C107.973 75.1365 107.37 74.987 106.991 74.688C106.612 74.389 106.425 73.8569 106.429 73.0915V64.3714C106.429 63.3841 106.145 62.6599 105.576 62.1988Z" fill="black"/>
<path d="M114.973 53.6821C114.968 53.3641 115.028 53.0484 115.15 52.7546C115.272 52.4608 115.452 52.1951 115.681 51.9739C115.919 51.7392 116.202 51.5556 116.513 51.4343C116.824 51.3129 117.157 51.2565 117.491 51.2684C117.822 51.2551 118.153 51.311 118.462 51.4324C118.771 51.5539 119.051 51.7383 119.285 51.9739C119.509 52.1976 119.685 52.4642 119.804 52.7576C119.923 53.0511 119.981 53.3655 119.976 53.6821C119.984 54.0089 119.925 54.3338 119.802 54.6369C119.68 54.9399 119.496 55.2146 119.263 55.444C119.03 55.6733 118.753 55.8525 118.448 55.9705C118.143 56.0884 117.817 56.1426 117.491 56.1297C117.157 56.1417 116.824 56.0851 116.512 55.9634C116.201 55.8417 115.918 55.6575 115.681 55.4221C115.45 55.1961 115.268 54.9249 115.146 54.6256C115.025 54.3263 114.966 54.0051 114.973 53.6821ZM115.318 58.683C115.501 58.6371 115.773 58.5793 116.127 58.5096C116.508 58.4379 116.896 58.4032 117.283 58.4059C118.11 58.4059 118.714 58.5554 119.095 58.8544C119.477 59.1533 119.666 59.6849 119.663 60.4489V74.8635C119.478 74.9094 119.209 74.9672 118.852 75.0369C118.471 75.1075 118.085 75.1423 117.698 75.1406C116.869 75.1406 116.267 74.9911 115.886 74.6921C115.505 74.3931 115.318 73.8649 115.318 73.0976V58.683Z" fill="black"/>
<path d="M132.627 61.545C131.973 61.539 131.324 61.656 130.714 61.8898C130.142 62.1088 129.625 62.4488 129.197 62.8864C128.752 63.3536 128.406 63.9053 128.178 64.5088C127.913 65.2253 127.784 65.9853 127.8 66.7492C127.8 68.4513 128.248 69.7336 129.145 70.596C130.042 71.4584 131.203 71.8915 132.627 71.8955C133.337 71.9117 134.043 71.801 134.714 71.5687C135.254 71.3712 135.779 71.1347 136.285 70.8611C136.59 71.0764 136.853 71.3468 137.06 71.6583C137.258 71.9665 137.36 72.3266 137.353 72.6928C137.353 73.4755 136.893 74.1193 135.974 74.6242C135.054 75.1291 133.812 75.3823 132.248 75.3836C131.027 75.3962 129.81 75.2159 128.645 74.8494C127.601 74.5207 126.642 73.9676 125.834 73.229C125.033 72.4753 124.414 71.549 124.025 70.5202C123.577 69.3186 123.36 68.0433 123.385 66.7611C123.358 65.4573 123.593 64.1615 124.076 62.9502C124.497 61.9121 125.14 60.9787 125.96 60.2156C126.762 59.4873 127.708 58.9352 128.736 58.5951C129.829 58.2336 130.974 58.0532 132.125 58.0609C133.666 58.0609 134.896 58.3313 135.814 58.8721C136.732 59.413 137.193 60.0774 137.196 60.8653C137.198 61.2193 137.095 61.5661 136.901 61.8619C136.723 62.1428 136.495 62.3888 136.229 62.5874C135.733 62.3181 135.221 62.0817 134.694 61.8798C134.032 61.6421 133.331 61.5285 132.627 61.545Z" fill="black"/>
<path d="M147.248 58.061C149.507 58.061 151.306 58.544 152.646 59.51C153.985 60.476 154.657 61.9702 154.661 63.9926V71.9653C154.686 72.4377 154.539 72.9032 154.246 73.2748C153.949 73.6147 153.599 73.9059 153.212 74.1379C152.449 74.5748 151.623 74.8889 150.762 75.0687C149.649 75.3117 148.513 75.4274 147.374 75.4135C145.074 75.4135 143.263 74.971 141.942 74.0861C140.622 73.2011 139.957 71.8723 139.949 70.0997C139.949 68.5583 140.438 67.3797 141.414 66.5638C142.391 65.748 143.817 65.2477 145.692 65.063L150.415 64.5786V63.9588C150.415 63.0858 150.1 62.442 149.469 62.0274C148.837 61.6128 147.946 61.4055 146.796 61.4055C145.914 61.403 145.035 61.5122 144.181 61.7304C143.397 61.9263 142.635 62.1986 141.905 62.5436C141.639 62.3469 141.422 62.0936 141.267 61.8021C141.093 61.4917 141.004 61.1413 141.008 60.7856C140.989 60.3863 141.104 59.992 141.334 59.6655C141.62 59.3281 141.98 59.0619 142.387 58.8881C143.119 58.5945 143.883 58.3865 144.663 58.2683C145.518 58.13 146.382 58.0607 147.248 58.061ZM147.388 72.0969C148.003 72.0997 148.616 72.0329 149.215 71.8976C149.644 71.8216 150.053 71.6632 150.421 71.4312V67.6043L147.087 67.9252C146.169 68.0169 145.468 68.2162 144.984 68.5231C144.5 68.8301 144.258 69.3191 144.258 69.9901C144.245 70.2897 144.305 70.588 144.435 70.8585C144.564 71.129 144.758 71.3634 145 71.5408C145.488 71.9102 146.284 72.0949 147.388 72.0949V72.0969Z" fill="black"/>
<path d="M157.423 73.4699C157.408 72.9556 157.593 72.4557 157.939 72.0747C158.121 71.8832 158.342 71.7334 158.587 71.6356C158.833 71.5379 159.096 71.4946 159.36 71.5086C159.62 71.4962 159.879 71.5404 160.12 71.6382C160.361 71.7359 160.578 71.8849 160.755 72.0747C161.101 72.4557 161.286 72.9556 161.271 73.4699C161.284 73.9766 161.099 74.4683 160.755 74.8412C160.578 75.031 160.361 75.18 160.12 75.2777C159.879 75.3754 159.62 75.4197 159.36 75.4073C159.096 75.4213 158.833 75.378 158.587 75.2803C158.342 75.1825 158.121 75.0327 157.939 74.8412C157.596 74.4678 157.412 73.9765 157.423 73.4699Z" fill="#0A85C2"/>
<path d="M168.812 65.9598C168.366 65.956 167.923 66.0358 167.506 66.195C167.117 66.3462 166.764 66.5786 166.472 66.8766C166.169 67.1945 165.934 67.5701 165.78 67.9808C165.598 68.4696 165.51 68.9883 165.521 69.5096C165.521 70.6683 165.826 71.5413 166.438 72.1286C167.049 72.716 167.84 73.0096 168.812 73.0096C169.295 73.0204 169.776 72.9448 170.233 72.7864C170.6 72.6525 170.957 72.492 171.301 72.306C171.51 72.4508 171.69 72.6341 171.831 72.8462C171.965 73.0567 172.035 73.3021 172.031 73.5518C172.031 74.0833 171.717 74.5218 171.09 74.8672C170.463 75.2127 169.617 75.3848 168.552 75.3835C167.72 75.3923 166.891 75.2698 166.097 75.0207C165.385 74.7968 164.731 74.4192 164.181 73.9145C163.635 73.4023 163.213 72.7716 162.948 72.0708C162.643 71.252 162.496 70.3831 162.513 69.5096C162.495 68.6233 162.654 67.7424 162.982 66.9185C163.261 66.2222 163.69 65.5959 164.238 65.0841C164.787 64.5722 165.441 64.1873 166.155 63.9566C166.898 63.71 167.676 63.5868 168.459 63.5919C169.507 63.5919 170.345 63.7759 170.972 64.144C171.599 64.5121 171.913 64.9625 171.913 65.4954C171.915 65.7372 171.846 65.9744 171.714 66.177C171.592 66.3679 171.436 66.5353 171.255 66.6713C170.918 66.4872 170.568 66.3261 170.209 66.189C169.761 66.0271 169.287 65.9494 168.812 65.9598Z" fill="#0A85C2"/>
<path d="M185.064 69.4857C185.076 70.3223 184.937 71.1541 184.654 71.9413C184.399 72.6377 184.003 73.2737 183.49 73.8089C182.981 74.3351 182.363 74.7434 181.68 75.0048C180.145 75.5523 178.467 75.5523 176.932 75.0048C176.252 74.746 175.635 74.3451 175.122 73.8289C174.608 73.2993 174.212 72.6668 173.96 71.9732C173.674 71.1785 173.534 70.3384 173.548 69.4937C173.535 68.6569 173.675 67.8249 173.96 67.0381C174.214 66.3417 174.614 65.7081 175.134 65.1805C175.653 64.666 176.274 64.2654 176.956 64.0045C178.475 63.4571 180.137 63.4571 181.656 64.0045C182.342 64.2678 182.963 64.6757 183.478 65.2004C183.997 65.7329 184.398 66.3694 184.654 67.068C184.934 67.8429 185.073 68.6618 185.064 69.4857ZM179.306 65.9359C178.924 65.9212 178.544 65.9977 178.197 66.1593C177.851 66.3208 177.547 66.5626 177.313 66.8647C176.827 67.4839 176.584 68.3576 176.585 69.4857C176.587 70.6139 176.825 71.4909 177.301 72.1167C177.551 72.4054 177.86 72.6368 178.207 72.795C178.555 72.9532 178.932 73.0346 179.314 73.0334C179.696 73.0323 180.073 72.9487 180.419 72.7885C180.765 72.6282 181.073 72.395 181.321 72.1048C181.798 71.4869 182.037 70.6139 182.037 69.4857C182.037 68.3576 181.794 67.4839 181.309 66.8647C181.074 66.5612 180.769 66.3185 180.42 66.1569C180.072 65.9953 179.69 65.9195 179.306 65.9359Z" fill="#0A85C2"/>
<path d="M204.057 75.0327C203.932 75.0626 203.746 75.1025 203.503 75.1483C203.24 75.1984 202.973 75.2224 202.706 75.22C202.142 75.22 201.731 75.1184 201.472 74.9151C201.213 74.7118 201.084 74.351 201.085 73.8328V67.7217C201.085 67.0959 200.913 66.6421 200.567 66.3604C200.177 66.0622 199.694 65.9118 199.204 65.9359C198.83 65.9364 198.459 66.0081 198.112 66.1471C197.772 66.2806 197.458 66.4714 197.183 66.7112C197.23 66.9273 197.254 67.1478 197.254 67.3689V75.0327C197.129 75.0626 196.944 75.1025 196.702 75.1483C196.44 75.1983 196.173 75.2223 195.905 75.22C195.341 75.22 194.928 75.1184 194.671 74.9151C194.414 74.7118 194.283 74.351 194.283 73.8328V67.7217C194.283 67.0959 194.103 66.6421 193.742 66.3604C193.34 66.0629 192.847 65.913 192.347 65.9359C191.979 65.9322 191.612 65.9964 191.267 66.1252C190.984 66.2292 190.708 66.3544 190.444 66.4999V75.0327C190.302 75.0626 190.115 75.1025 189.88 75.1483C189.617 75.1986 189.35 75.2226 189.082 75.22C188.535 75.22 188.128 75.1184 187.861 74.9151C187.594 74.7158 187.462 74.351 187.462 73.8328V66.2887C187.45 65.9705 187.532 65.656 187.697 65.3838C187.89 65.1056 188.138 64.8695 188.425 64.6901C188.979 64.3359 189.584 64.0672 190.219 63.8929C190.944 63.681 191.695 63.5743 192.451 63.5759C193.878 63.5759 195.037 63.96 195.929 64.728C196.419 64.389 196.953 64.1181 197.516 63.9228C198.183 63.6901 198.887 63.5787 199.594 63.5939C200.182 63.5915 200.767 63.6665 201.334 63.8171C201.854 63.9519 202.339 64.1966 202.756 64.5347C203.165 64.876 203.491 65.3061 203.708 65.7924C203.956 66.3664 204.076 66.9872 204.061 67.6121L204.057 75.0327Z" fill="#0A85C2"/>
</svg>
