<svg width="358" height="44" viewBox="0 0 358 44" fill="none" xmlns="http://www.w3.org/2000/svg">
<path d="M128.913 34.2652C129.02 34.0586 129.127 33.857 129.239 33.6554C130.217 31.8735 131.372 30.2483 133.243 29.2304L133.273 29.2154L133.33 29.1831L133.495 29.096L133.335 29.0562L133.253 29.0363H133.231H133.203C132.103 28.7618 130.949 28.78 129.858 29.0891C128.766 29.3982 127.775 29.9874 126.981 30.7983C125.737 32.1149 124.607 33.5658 123.48 34.9994C119.712 39.7978 112.927 39.5812 109.652 34.5365C107.3 30.9153 108.923 26.1368 112.967 24.8999C115.374 24.1532 117.626 24.651 119.687 26.0721C120.184 26.4205 120.657 26.8187 121.14 27.212C121.883 25.8978 122.71 24.6333 123.617 23.4265C123.567 23.3962 123.52 23.3629 123.475 23.327C120.369 20.8382 116.845 19.773 112.902 20.3404C105.799 21.3633 101.125 28.5534 104.846 35.6291C107.143 40.0019 110.939 42.3239 115.797 42.8689C119.348 43.2696 122.579 42.4185 125.254 39.9197C125.738 39.4634 126.179 38.9635 126.571 38.4265C126.765 38.1577 126.951 37.8814 127.128 37.6002L127.26 37.3861L127.404 37.1373C127.442 37.0726 127.479 37.0103 127.514 36.9456C127.641 36.7291 127.763 36.5076 127.882 36.2886C128.002 36.0696 128.131 35.8356 128.241 35.6091C128.35 35.3827 128.462 35.1786 128.572 34.9645L128.913 34.2652Z" fill="#0A85C2"/>
<path d="M147.381 28.8864C146.293 26.2853 144.455 24.0674 142.1 22.5159C139.746 20.9644 136.983 20.1496 134.163 20.1757C130.928 20.1757 128.033 21.1015 125.876 23.5156C125.761 23.645 125.647 23.7794 125.535 23.9163C124.367 25.3648 123.429 27.0099 122.483 28.6251C122.444 28.6923 122.404 28.7595 122.367 28.8267C121.391 30.5091 120.463 32.2089 118.959 33.5031C118.925 33.5305 118.71 33.7196 118.504 33.8665L118.698 33.8839C120.372 34.0071 122.039 33.5597 123.427 32.6146C125.229 31.3951 126.488 29.6405 127.892 28.0328C128.887 26.8854 129.945 25.7929 131.376 25.1607C135.55 23.2817 140.94 25.3772 142.7 29.6131C143.656 31.9128 143.646 34.2099 142.038 36.2333C140.48 38.1945 138.337 38.6897 135.935 38.2816C134.146 37.9755 132.68 37.0372 131.304 35.9122C131.055 35.7156 130.806 35.5265 130.54 35.31L130.435 35.514C129.834 36.7647 129.136 37.9663 128.347 39.1079C128.36 39.1303 128.374 39.152 128.389 39.1726C128.482 39.2941 128.586 39.4073 128.698 39.511C128.785 39.5957 128.872 39.6803 128.964 39.7599C129.056 39.8396 129.148 39.9068 129.243 39.974C129.427 40.1108 129.616 40.2428 129.808 40.3722C130 40.5016 130.189 40.621 130.383 40.748C130.577 40.8749 130.774 40.9968 130.973 41.0989C131.172 41.2009 131.371 41.3204 131.573 41.4249C131.774 41.5294 131.981 41.6265 132.187 41.7186C132.394 41.8107 132.605 41.9028 132.814 41.9849C133.023 42.067 133.243 42.1467 133.457 42.2188C133.671 42.291 133.892 42.3582 134.114 42.4204C134.335 42.4827 134.559 42.5349 134.783 42.5847C137.585 43.1944 140.36 43.0476 142.931 41.6763C147.633 39.1477 149.459 33.8341 147.381 28.8864Z" fill="black"/>
<path d="M182.711 41.8703C182.48 41.9276 182.144 41.9997 181.699 42.0868C181.223 42.175 180.741 42.2184 180.257 42.2163C179.222 42.2163 178.471 42.0296 177.995 41.6563C177.52 41.283 177.286 40.6234 177.286 39.6653V28.4682C177.286 27.3217 176.97 26.4921 176.338 25.9794C175.706 25.4667 174.876 25.2079 173.849 25.2029C173.162 25.2024 172.482 25.3342 171.845 25.5912C171.224 25.8354 170.649 26.1848 170.146 26.624C170.23 27.0208 170.274 27.4253 170.275 27.8311V41.8678C170.044 41.9251 169.708 41.9973 169.262 42.0844C168.786 42.1727 168.303 42.216 167.819 42.2138C166.785 42.2138 166.032 42.0271 165.559 41.6538C165.086 41.2805 164.849 40.6168 164.849 39.6628V28.4682C164.849 27.3217 164.518 26.4921 163.854 25.9794C163.12 25.4387 162.224 25.1648 161.313 25.2029C160.634 25.195 159.959 25.3122 159.322 25.5489C158.802 25.7394 158.298 25.9699 157.814 26.2382V41.8678C157.565 41.9251 157.211 41.9973 156.781 42.0844C156.298 42.1745 155.808 42.2179 155.317 42.2138C154.312 42.2138 153.565 42.0271 153.077 41.6538C152.59 41.2805 152.346 40.6168 152.346 39.6628V25.8525C152.324 25.2698 152.474 24.6936 152.776 24.195C153.13 23.6848 153.584 23.2521 154.11 22.9232C155.123 22.2816 156.226 21.7959 157.383 21.4822C158.712 21.0928 160.09 20.8967 161.475 20.8998C164.086 20.8998 166.211 21.6033 167.848 23.0103C168.731 22.3815 169.693 21.8742 170.711 21.5021C171.935 21.0769 173.225 20.8729 174.521 20.8998C175.597 20.8941 176.669 21.0322 177.709 21.3105C178.661 21.5565 179.55 22.0037 180.315 22.622C181.063 23.2476 181.659 24.0358 182.057 24.9267C182.512 25.9791 182.733 27.1179 182.704 28.2641L182.711 41.8703Z" fill="black"/>
<path d="M193.652 41.8709C193.403 41.9281 193.047 42.0003 192.617 42.0874C192.134 42.1776 191.644 42.2209 191.153 42.2168C190.148 42.2168 189.401 42.0302 188.913 41.6569C188.425 41.2835 188.182 40.6199 188.182 39.6658V26.0248C188.159 25.3557 188.34 24.6956 188.699 24.1308C189.094 23.5666 189.608 23.0959 190.205 22.752C191.233 22.1501 192.343 21.7008 193.5 21.418C194.882 21.0636 196.304 20.8896 197.731 20.9004C200.459 20.9004 201.823 21.7474 201.823 23.4414C201.825 23.8306 201.759 24.2172 201.628 24.5838C201.523 24.8906 201.386 25.1858 201.22 25.4648C200.411 25.3089 199.588 25.2372 198.764 25.2508C197.807 25.2451 196.852 25.3605 195.924 25.5942C195.131 25.7866 194.364 26.0758 193.642 26.4553L193.652 41.8709Z" fill="black"/>
<path d="M211.585 37.5652C212.145 37.9684 212.927 38.1675 213.932 38.1675C214.435 38.1666 214.936 38.1091 215.425 37.9958C215.889 37.8926 216.343 37.7485 216.782 37.5652C217.021 37.8102 217.217 38.0938 217.362 38.4039C217.53 38.7609 217.615 39.1516 217.611 39.5463C217.611 39.9704 217.505 40.3878 217.302 40.76C217.099 41.1323 216.805 41.4476 216.448 41.6767C215.673 42.2375 214.425 42.5179 212.703 42.5179C210.433 42.5179 208.646 42.0085 207.342 40.9898C206.038 39.9711 205.378 38.2861 205.363 35.9351V16.1641C205.592 16.1069 205.928 16.0347 206.374 15.9476C206.85 15.8593 207.333 15.8159 207.817 15.8182C208.813 15.8182 209.559 16.0073 210.035 16.3782C210.51 16.749 210.744 17.4135 210.744 18.3692V21.9431H217.076C217.241 22.228 217.371 22.5323 217.461 22.849C217.579 23.2396 217.638 23.6456 217.635 24.0536C217.635 24.8002 217.461 25.3453 217.118 25.6912C216.935 25.8662 216.718 26.0021 216.481 26.0907C216.244 26.1792 215.992 26.2186 215.739 26.2064H210.747V35.5941C210.747 36.5025 211.025 37.1645 211.585 37.5652Z" fill="black"/>
<path d="M234.321 26.067C233.619 25.4945 232.665 25.2075 231.459 25.2058C230.68 25.1988 229.904 25.301 229.154 25.5095C228.512 25.6825 227.896 25.9429 227.325 26.2835V41.8708C227.076 41.928 226.72 42.0002 226.289 42.0873C225.807 42.1775 225.317 42.2208 224.826 42.2167C223.821 42.2167 223.074 42.03 222.586 41.6567C222.098 41.2834 221.854 40.6197 221.854 39.6657V25.8529C221.829 25.2627 221.978 24.6781 222.285 24.173C222.645 23.6749 223.099 23.2522 223.621 22.9286C224.641 22.2715 225.761 21.7848 226.937 21.4876C228.424 21.0851 229.96 20.8891 231.501 20.9052C234.458 20.9052 236.747 21.5581 238.37 22.8639C239.993 24.1697 240.803 26.086 240.802 28.613V41.8757C240.573 41.933 240.234 42.0052 239.791 42.0923C239.315 42.1806 238.832 42.2239 238.348 42.2217C237.314 42.2217 236.561 42.035 236.088 41.6617C235.615 41.2884 235.381 40.6239 235.386 39.6682V28.7797C235.386 27.547 235.031 26.6427 234.321 26.067Z" fill="black"/>
<path d="M246.052 15.4326C246.045 15.0355 246.12 14.6414 246.272 14.2745C246.424 13.9076 246.65 13.5758 246.935 13.2997C247.232 13.0066 247.585 12.7773 247.974 12.6258C248.363 12.4743 248.778 12.4038 249.195 12.4186C249.609 12.4021 250.022 12.4718 250.408 12.6235C250.793 12.7752 251.143 13.0055 251.435 13.2997C251.715 13.579 251.935 13.9118 252.084 14.2783C252.232 14.6447 252.305 15.0373 252.298 15.4326C252.308 15.8406 252.234 16.2464 252.081 16.6248C251.928 17.0031 251.699 17.3461 251.408 17.6325C251.117 17.9189 250.771 18.1427 250.39 18.29C250.01 18.4372 249.603 18.5049 249.195 18.4888C248.778 18.5038 248.362 18.4331 247.974 18.2811C247.585 18.1292 247.231 17.8991 246.935 17.6053C246.647 17.323 246.42 16.9845 246.268 16.6107C246.116 16.2369 246.042 15.8359 246.052 15.4326ZM246.482 21.6769C246.711 21.6197 247.05 21.5475 247.493 21.4604C247.968 21.3709 248.452 21.3276 248.936 21.331C249.968 21.331 250.722 21.5177 251.198 21.891C251.675 22.2643 251.911 22.928 251.908 23.882V41.8809C251.676 41.9382 251.34 42.0103 250.895 42.0974C250.42 42.1856 249.937 42.229 249.454 42.2269C248.418 42.2269 247.667 42.0402 247.191 41.6669C246.716 41.2936 246.482 40.634 246.482 39.6759V21.6769Z" fill="black"/>
<path d="M268.098 25.2506C267.281 25.2431 266.471 25.3892 265.708 25.6812C264.995 25.9546 264.349 26.3791 263.815 26.9255C263.259 27.509 262.827 28.1979 262.543 28.9514C262.211 29.846 262.051 30.795 262.07 31.7488C262.07 33.8742 262.63 35.4754 263.75 36.5522C264.87 37.629 266.319 38.1699 268.098 38.1749C268.984 38.1951 269.866 38.0568 270.703 37.7667C271.378 37.5201 272.033 37.2248 272.665 36.8832C273.046 37.1521 273.375 37.4897 273.633 37.8787C273.88 38.2635 274.007 38.7131 273.999 39.1704C273.999 40.1476 273.425 40.9515 272.276 41.582C271.128 42.2125 269.578 42.5286 267.625 42.5302C266.099 42.546 264.581 42.3209 263.125 41.8633C261.822 41.4528 260.624 40.7622 259.616 39.8399C258.615 38.8988 257.843 37.7421 257.356 36.4576C256.797 34.9572 256.526 33.3647 256.557 31.7637C256.524 30.1358 256.818 28.5177 257.421 27.0052C257.946 25.7089 258.749 24.5434 259.773 23.5906C260.774 22.6812 261.955 21.9919 263.24 21.5672C264.604 21.1158 266.033 20.8905 267.471 20.9002C269.395 20.9002 270.931 21.2378 272.077 21.9131C273.224 22.5884 273.799 23.418 273.802 24.4019C273.805 24.844 273.677 25.2769 273.434 25.6463C273.212 25.9971 272.928 26.3042 272.595 26.5522C271.976 26.2159 271.336 25.9208 270.679 25.6687C269.851 25.3718 268.976 25.23 268.098 25.2506Z" fill="black"/>
<path d="M286.356 20.8999C289.177 20.8999 291.423 21.503 293.096 22.7092C294.768 23.9155 295.607 25.7812 295.612 28.3065V38.2617C295.644 38.8515 295.46 39.4327 295.094 39.8968C294.723 40.3212 294.287 40.6848 293.803 40.9745C292.85 41.52 291.818 41.9123 290.744 42.1367C289.354 42.4402 287.935 42.5846 286.513 42.5673C283.641 42.5673 281.38 42.0148 279.731 40.9097C278.082 39.8047 277.252 38.1455 277.242 35.9322C277.242 34.0075 277.852 32.5358 279.071 31.5171C280.291 30.4983 282.071 29.8736 284.412 29.643L290.311 29.0382V28.2642C290.311 27.1741 289.917 26.3702 289.129 25.8526C288.341 25.3349 287.228 25.0761 285.791 25.0761C284.69 25.073 283.593 25.2093 282.526 25.4818C281.548 25.7263 280.596 26.0664 279.684 26.4972C279.353 26.2515 279.081 25.9353 278.887 25.5713C278.671 25.1837 278.559 24.7461 278.564 24.3021C278.54 23.8034 278.684 23.3111 278.972 22.9034C279.329 22.4821 279.778 22.1498 280.286 21.9327C281.2 21.5661 282.154 21.3064 283.128 21.1587C284.195 20.9861 285.275 20.8995 286.356 20.8999ZM286.53 38.4259C287.298 38.4295 288.064 38.346 288.813 38.1771C289.347 38.0822 289.859 37.8844 290.318 37.5947V32.8162L286.155 33.2169C285.008 33.3314 284.133 33.5803 283.529 33.9635C282.925 34.3468 282.623 34.9574 282.623 35.7953C282.606 36.1693 282.681 36.5418 282.843 36.8796C283.004 37.2174 283.247 37.5101 283.549 37.7316C284.158 38.1928 285.152 38.4234 286.53 38.4234V38.4259Z" fill="black"/>
<path d="M299.056 40.1402C299.038 39.498 299.269 38.8738 299.7 38.398C299.927 38.1589 300.204 37.9718 300.51 37.8498C300.816 37.7278 301.145 37.6737 301.475 37.6912C301.799 37.6757 302.123 37.7309 302.424 37.853C302.724 37.975 302.995 38.161 303.217 38.398C303.649 38.8738 303.88 39.498 303.862 40.1402C303.877 40.7729 303.646 41.3868 303.217 41.8525C302.995 42.0895 302.724 42.2755 302.424 42.3975C302.123 42.5196 301.799 42.5748 301.475 42.5593C301.145 42.5768 300.816 42.5227 300.51 42.4007C300.204 42.2787 299.927 42.0916 299.7 41.8525C299.273 41.3861 299.042 40.7727 299.056 40.1402Z" fill="#0A85C2"/>
<path d="M313.28 30.7633C312.723 30.7586 312.171 30.8582 311.65 31.0569C311.164 31.2458 310.724 31.536 310.359 31.9081C309.981 32.305 309.687 32.774 309.495 33.2869C309.268 33.8972 309.158 34.5448 309.171 35.1958C309.171 36.6426 309.553 37.7327 310.316 38.4661C311.079 39.1994 312.068 39.5661 313.28 39.5661C313.884 39.5796 314.485 39.4851 315.055 39.2874C315.514 39.1202 315.959 38.9197 316.389 38.6876C316.65 38.8683 316.875 39.0972 317.051 39.362C317.219 39.6249 317.305 39.9313 317.3 40.2431C317.3 40.9067 316.908 41.4543 316.125 41.8856C315.342 42.317 314.286 42.5319 312.957 42.5302C311.917 42.5412 310.883 42.3884 309.891 42.0773C309.002 41.7977 308.185 41.3262 307.499 40.696C306.816 40.0565 306.289 39.2689 305.958 38.3939C305.578 37.3715 305.394 36.2865 305.416 35.1958C305.393 34.0891 305.592 32.9891 306.001 31.9604C306.349 31.091 306.885 30.309 307.57 29.6698C308.255 29.0307 309.072 28.55 309.963 28.262C310.891 27.954 311.862 27.8002 312.84 27.8066C314.149 27.8066 315.195 28.0364 315.978 28.496C316.761 28.9556 317.153 29.518 317.153 30.1834C317.155 30.4854 317.069 30.7815 316.904 31.0345C316.752 31.2729 316.558 31.482 316.332 31.6518C315.91 31.4218 315.474 31.2206 315.025 31.0495C314.466 30.8473 313.875 30.7503 313.28 30.7633Z" fill="#0A85C2"/>
<path d="M333.573 35.1657C333.588 36.2102 333.414 37.2489 333.06 38.2319C332.742 39.1014 332.247 39.8955 331.607 40.5639C330.972 41.2209 330.2 41.7306 329.347 42.0571C327.43 42.7407 325.335 42.7407 323.419 42.0571C322.569 41.7339 321.799 41.2333 321.159 40.5888C320.517 39.9275 320.022 39.1378 319.708 38.2717C319.35 37.2794 319.175 36.2303 319.193 35.1756C319.177 34.1308 319.352 33.0918 319.708 32.1095C320.024 31.2399 320.524 30.4487 321.174 29.7899C321.821 29.1474 322.596 28.6473 323.448 28.3215C325.345 27.6379 327.42 27.6379 329.317 28.3215C330.174 28.6503 330.949 29.1596 331.592 29.8148C332.24 30.4797 332.741 31.2745 333.06 32.1468C333.41 33.1144 333.584 34.1368 333.573 35.1657ZM326.383 30.7331C325.906 30.7147 325.431 30.8103 324.998 31.012C324.565 31.2137 324.187 31.5157 323.894 31.8929C323.287 32.6661 322.984 33.757 322.985 35.1657C322.987 36.5743 323.285 37.6694 323.879 38.4509C324.191 38.8114 324.577 39.1003 325.011 39.2978C325.444 39.4954 325.916 39.5969 326.392 39.5955C326.869 39.5941 327.34 39.4898 327.772 39.2896C328.205 39.0895 328.589 38.7983 328.899 38.4359C329.494 37.6644 329.792 36.5743 329.792 35.1657C329.792 33.757 329.489 32.6661 328.884 31.8929C328.59 31.514 328.209 31.2109 327.774 31.0091C327.339 30.8074 326.862 30.7127 326.383 30.7331Z" fill="#0A85C2"/>
<path d="M357.285 42.0917C357.129 42.129 356.897 42.1788 356.594 42.2361C356.266 42.2986 355.932 42.3286 355.598 42.3256C354.895 42.3256 354.381 42.1987 354.058 41.9449C353.734 41.691 353.573 41.2405 353.575 40.5934V32.9628C353.575 32.1814 353.359 31.6147 352.928 31.263C352.441 30.8906 351.838 30.7028 351.225 30.7329C350.758 30.7335 350.295 30.823 349.861 30.9967C349.437 31.1634 349.045 31.4016 348.702 31.701C348.761 31.9708 348.791 32.2461 348.791 32.5223V42.0917C348.634 42.129 348.403 42.1788 348.102 42.2361C347.774 42.2984 347.44 42.3285 347.106 42.3256C346.402 42.3256 345.887 42.1987 345.566 41.9449C345.245 41.691 345.08 41.2405 345.08 40.5934V32.9628C345.08 32.1814 344.856 31.6147 344.406 31.263C343.903 30.8916 343.288 30.7044 342.664 30.7329C342.204 30.7283 341.746 30.8085 341.315 30.9693C340.961 31.0991 340.617 31.2555 340.287 31.4372V42.0917C340.11 42.129 339.876 42.1788 339.583 42.2361C339.255 42.2988 338.921 42.3288 338.587 42.3256C337.904 42.3256 337.395 42.1987 337.062 41.9449C336.728 41.696 336.564 41.2405 336.564 40.5934V31.1734C336.549 30.7762 336.651 30.3834 336.858 30.0435C337.098 29.6961 337.407 29.4014 337.766 29.1774C338.458 28.7351 339.214 28.3995 340.006 28.1819C340.911 27.9173 341.85 27.7841 342.793 27.7862C344.575 27.7862 346.023 28.2657 347.136 29.2247C347.748 28.8013 348.414 28.4631 349.117 28.2192C349.951 27.9287 350.83 27.7897 351.713 27.8085C352.446 27.8056 353.177 27.8993 353.886 28.0873C354.535 28.2556 355.14 28.5611 355.66 28.9833C356.171 29.4095 356.578 29.9466 356.85 30.5537C357.159 31.2705 357.309 32.0456 357.29 32.826L357.285 42.0917Z" fill="#0A85C2"/>
<path d="M49.0471 27.2276C49.2641 26.8304 49.4616 26.4376 49.6765 26.0513C51.569 22.607 53.8001 19.4708 57.4138 17.5023L57.4724 17.4719C57.5028 17.4524 57.5397 17.435 57.5809 17.4111L57.9021 17.2419C57.824 17.2202 57.7024 17.1898 57.5917 17.1659L57.4355 17.1268L57.3942 17.116C57.3764 17.1106 57.3583 17.1063 57.34 17.103C53.0796 16.0699 48.4112 17.2462 45.3076 20.5061C42.8855 23.0497 40.7195 25.8516 38.5426 28.621C31.2633 37.8884 18.1587 37.4695 11.8322 27.7246C7.29399 20.7339 10.4236 11.5035 18.2369 9.11391C22.8879 7.69017 27.2373 8.62775 31.2003 11.3754C32.177 12.0504 33.0755 12.8317 34.0088 13.5783C35.4651 11.102 36.9887 8.58652 38.7835 6.26642C38.6707 6.18829 38.586 6.1362 38.5101 6.07326C32.5112 1.28113 25.705 -0.789377 18.0893 0.306648C4.37053 2.28166 -4.65377 16.1502 2.53224 29.8233C6.98362 38.279 14.3216 42.7673 23.6844 43.8177C30.5427 44.5904 36.7825 42.9496 41.9522 38.1206C42.8874 37.2369 43.7369 36.2668 44.4894 35.2232C44.867 34.7023 45.2287 34.1691 45.5745 33.6236C45.6614 33.4891 45.7438 33.3523 45.8285 33.2134C45.9131 33.0745 46.0173 32.9009 46.1084 32.7446C46.1801 32.6231 46.2517 32.5016 46.3255 32.3778C46.5686 31.959 46.803 31.5336 47.0352 31.1082C47.2674 30.6828 47.4996 30.2401 47.7253 29.806C47.9511 29.3719 48.1594 28.9726 48.3764 28.5602L49.0471 27.2276Z" fill="#0A85C2"/>
<path d="M84.7197 16.8376C80.4007 6.55235 70.4671 -0.0259671 59.1878 7.70506e-05C52.9545 0.0109288 47.3507 1.78627 43.188 6.45035C42.9623 6.69921 42.7452 6.95748 42.5369 7.22515C40.2819 10.0227 38.4675 13.2023 36.6422 16.3189C36.5684 16.4491 36.4903 16.5793 36.4252 16.7096C34.5413 19.9651 32.753 23.2445 29.8447 25.7425C29.7796 25.7968 29.3629 26.1593 28.9766 26.4436L29.3542 26.4805C32.7899 26.6606 35.7784 25.8511 38.4697 24.0258C41.9422 21.6731 44.3817 18.2831 47.0946 15.1773C49.0349 12.9592 51.0598 10.8648 53.7988 9.6299C61.8595 5.99891 72.2728 10.0488 75.6694 18.2266C77.5185 22.6693 77.4968 27.1077 74.391 31.0187C71.3829 34.8037 67.2419 35.763 62.6061 34.9709C59.1465 34.3805 56.3121 32.5488 53.6577 30.3979C53.1889 30.0181 52.7115 29.6492 52.1841 29.2346L51.9801 29.6275C50.7799 31.9714 49.5514 34.3697 47.9475 36.5726C47.9715 36.6163 47.9983 36.6583 48.0279 36.6985C48.2104 36.9313 48.4115 37.149 48.629 37.3496C48.794 37.5123 48.9611 37.6751 49.1412 37.8249C49.3214 37.9746 49.4972 38.1092 49.6773 38.2394C50.0347 38.5013 50.3964 38.7574 50.7625 39.0077C51.1286 39.258 51.4997 39.4996 51.8759 39.7326C52.2514 39.9648 52.629 40.1927 53.0131 40.4097C53.3973 40.6268 53.7836 40.8438 54.1743 41.037C54.5649 41.2301 54.9599 41.4276 55.3593 41.6099C55.7586 41.7922 56.1666 41.9615 56.5725 42.12C56.9784 42.2784 57.3951 42.4347 57.8118 42.5736C58.2285 42.7125 58.6539 42.8449 59.0814 42.9621C59.509 43.0793 59.9496 43.1791 60.3706 43.2789C65.7965 44.4553 71.1464 44.1731 76.11 41.5231C85.2037 36.6594 88.7327 26.3937 84.7197 16.8376Z" fill="black"/>
</svg>
